<?xml version="1.0" encoding="utf-8" ?><svg xmlns="http://www.w3.org/2000/svg" xmlns:xlink="http://www.w3.org/1999/xlink" width="1024" height="1024" viewBox="0 0 1024 1024"><path fill="#FEFEFE" d="M442.375 405.949C442.953 406.497 442.695 406.113 442.794 407.274C423.264 433.448 428.215 474.432 427.599 505.118C427.407 514.681 427.989 522.603 426.253 532.244C424.783 540.57 421.826 548.563 417.521 555.84C399.391 586.66 360.302 596.818 329.67 578.139C327.559 576.729 326.02 575.287 324.123 573.62C330.388 572.115 336.599 570.392 342.744 568.456C366.017 576.883 384.278 573.459 401.583 553.843C403.599 551.557 407.016 546.125 407.956 543.288C424.912 492.118 393.253 446.254 442.375 405.949Z"/><path fill="#FEFEFE" d="M425.615 411.958L426.517 412.287L426.742 413.145C425.473 415.178 424.207 415.852 422.389 417.35C402.12 434.055 397.623 455.961 396.443 481.048C396.115 488.041 396.181 494.461 395.55 501.424C393.343 531.485 370.828 553.066 343.126 561.82C326.192 567.171 309.016 570.474 293.716 580.207C289.634 582.803 286.028 585.766 282.239 588.859L281.675 589.107L281.264 588.572C286.2 572.151 306.993 558.652 322.255 553.535C329.212 551.203 336.477 549.389 343.325 546.723C351.594 543.579 359.181 538.874 365.673 532.865C385.509 514.309 380.395 493.691 382.997 469.208C383.947 460.508 386.237 452.008 389.785 444.008C396.938 427.824 409.466 418.115 425.615 411.958Z"/><path fill="#FEFEFE" d="M558.666 493.596C586.293 492.221 593.36 522.48 576.932 540.109C569.256 548.346 561.31 550.327 550.154 550.627C561.895 540.398 563.333 543.78 572.036 527.502C568.185 531.58 565.433 534.224 561.293 537.937C551.862 545.345 552.908 543.845 545.466 535.719C545.319 545.664 545.314 555.611 545.451 565.557L535.531 565.555L535.512 494.623C539.067 494.064 542.206 492.888 544.668 495.719C545.38 497.962 544.946 500.051 544.726 502.444C549.909 497.436 551.691 495.584 558.666 493.596ZM552.093 533.622L556.265 526.622C561.873 519.227 566.505 517.359 575.052 514.592C571.881 503.725 568.123 501.648 556.959 502.066C542.949 508.477 540.308 523.319 552.093 533.622Z"/><path fill="#FEFEFE" d="M671.015 476.901C673.985 476.789 677.586 476.955 680.603 477.021C679.65 480.777 678.512 484.618 677.454 488.358C674.114 499.411 670.841 510.484 667.636 521.576C665.543 528.757 663.321 537.221 660.652 544.09L651.327 544.003C649.916 541.136 645.794 528.485 644.751 524.809C642.049 515.295 636.042 499.657 634.519 490.341C633.85 492.965 633.13 495.597 632.301 498.174C627.378 513.486 623.23 529.142 617.662 544.23C614.629 544.304 611.498 544.281 608.456 544.297C606.202 537.645 588.802 479.919 589.065 477.254C592.247 477.187 594.639 477.28 597.816 477.464C603.673 491.225 608.218 514.635 613.69 529.937C614.947 524.81 617.74 516.876 619.402 511.57L630.169 476.93C633.562 476.96 635.595 477.061 638.96 477.453C644.513 492.243 650.569 514.389 655.578 530.204C660.159 514.182 665.394 491.841 671.015 476.901Z"/><path fill="#FEFEFE" d="M279.904 425.485C286.974 427.804 296.533 439.871 300.343 445.81C316.242 470.592 308.134 498.582 311.742 525.604C312.301 529.789 313.451 532.421 314.516 536.21C315.237 538.774 319.247 546.875 318.933 548.331L317.238 549.319C313.366 550.737 310.392 551.701 306.42 552.803C289.774 520.929 300.727 492.638 294.134 459.309C291.089 443.917 285.373 438.423 280.267 426.359L279.904 425.485Z"/><path fill="#FEFEFE" d="M701.682 493.585C702.953 493.495 704.227 493.465 705.5 493.496C723.197 493.808 729.083 506.934 728.259 522.456C716.856 523.02 701.511 522.597 689.69 522.711C693.147 536.72 705.32 542.15 717.318 533.584C718.643 532.477 719.056 531.9 720.767 531.75C722.957 532.224 724.557 533.953 726.34 535.466C717.097 545.406 704.282 548.447 691.997 541.921C675.379 533.095 677.036 503.845 693.741 496.01C696.546 494.695 698.679 494.197 701.682 493.585ZM689.917 515.195C695.173 515.708 701.199 515.518 706.536 515.488L719.268 515.515C717.321 505.391 713.594 501.418 702.952 501.568C695.212 503.486 691.881 507.698 689.917 515.195Z"/><path fill="#FEFEFE" d="M465.111 477.073L474.972 477.11C474.97 489.085 474.87 501.041 474.891 513.034C474.623 520.283 476.327 529.063 482.814 533.391C491.856 540.029 508.688 535.717 510.417 523.576C512.517 508.825 510.753 492.303 511.175 477.232C514.177 477.392 517.858 477.334 520.916 477.367L520.97 485.31C521.007 494.675 521.854 519.845 519.608 527.756C518.615 531.365 516.731 534.667 514.129 537.357C500.946 551.075 469.981 546.378 466.576 527.394C463.988 512.964 465.148 492.146 465.111 477.073Z"/><path fill="#FEFEFE" d="M296.458 429.058C307.843 429.622 319.659 437.73 326.85 446.159C344.866 467.275 339.097 494.55 341.3 519.823C341.907 526.778 346.401 531.237 347.134 537.639C347.21 538.296 346.184 538.63 345.656 538.941C343.789 539.94 341.681 540.921 339.764 541.863C317.668 510.787 333.974 496.898 323.326 463.037C320.473 453.964 315 445.2 308.357 438.341C305.658 435.554 297.497 431.706 296.458 429.058Z"/><path fill="#FEFEFE" d="M299.836 559.529C298.64 559.518 297.444 559.465 296.251 559.369C274.856 557.441 261.594 537.76 263.539 517.121C264 516.431 264.457 515.736 265.497 515.815C287.134 517.453 296.635 532.088 297.802 552.145C294.668 550.075 291.721 547.752 288.742 545.465C282.07 539.24 279.744 535.037 274.318 529.505C276.392 533.265 281.648 545.079 284.563 547.089C287.806 551.447 295.25 556.391 299.836 559.529Z"/><path fill="#FEFEFE" d="M763.464 473.484L773.031 473.494C772.705 481.169 772.912 490.473 772.895 498.266L772.741 543.729C771.167 543.953 765.385 543.826 763.486 543.823L763.464 473.484Z"/><path fill="#FEFEFE" d="M739.056 473.615L748.497 473.655L748.488 520.657C748.486 525.577 748.789 539.877 748.172 543.852C745.473 543.994 742.239 543.962 739.495 544C739.151 520.54 739.005 497.077 739.056 473.615Z"/><path fill="#FEFEFE" d="M358.99 426.818C362.604 426.103 366.321 427.415 368.685 430.24C371.05 433.065 371.687 436.954 370.346 440.386C369.006 443.818 365.902 446.246 362.248 446.72C356.852 447.421 351.872 443.715 350.993 438.345C350.114 432.975 353.652 427.875 358.99 426.818Z"/><path fill="#FEFEFE" d="M357.762 511.191C360.289 510.243 363.13 510.728 365.2 512.459C367.269 514.191 368.248 516.901 367.761 519.556C367.275 522.21 365.398 524.397 362.849 525.282C358.974 526.627 354.739 524.606 353.347 520.748C351.954 516.891 353.922 512.631 357.762 511.191Z"/><path fill="#203633" fill-opacity="0.011764706" d="M274.318 529.505C279.744 535.037 282.07 539.24 288.742 545.465C287.147 545.659 287.221 545.711 285.791 546.501L285.014 546.394L284.563 547.089C281.648 545.079 276.392 533.265 274.318 529.505Z"/></svg>